<svg width="166" height="166" viewBox="0 0 166 166" fill="none" xmlns="http://www.w3.org/2000/svg">
<circle cx="83" cy="83" r="83" fill="url(#paint0_radial_11_6)"/>
<mask id="path-2-outside-1_11_6" maskUnits="userSpaceOnUse" x="28" y="52" width="52" height="63" fill="black">
<rect fill="white" x="28" y="52" width="52" height="63"/>
<path d="M54.16 112.28C49.36 112.28 45.2 111.4 41.68 109.64C38.2133 107.88 35.52 105.373 33.6 102.12C31.68 98.8133 30.72 94.9467 30.72 90.52V54.12H42.88V90.52C42.88 94.2 43.84 97.0533 45.76 99.08C47.7333 101.053 50.5333 102.04 54.16 102.04C57.7867 102.04 60.56 101.053 62.48 99.08C64.4 97.0533 65.36 94.2 65.36 90.52V54.12H77.52V90.52C77.52 94.9467 76.56 98.8133 74.64 102.12C72.7733 105.373 70.08 107.88 66.56 109.64C63.04 111.4 58.9067 112.28 54.16 112.28Z"/>
</mask>
<path d="M54.16 112.28C49.36 112.28 45.2 111.4 41.68 109.64C38.2133 107.88 35.52 105.373 33.6 102.12C31.68 98.8133 30.72 94.9467 30.72 90.52V54.12H42.88V90.52C42.88 94.2 43.84 97.0533 45.76 99.08C47.7333 101.053 50.5333 102.04 54.16 102.04C57.7867 102.04 60.56 101.053 62.48 99.08C64.4 97.0533 65.36 94.2 65.36 90.52V54.12H77.52V90.52C77.52 94.9467 76.56 98.8133 74.64 102.12C72.7733 105.373 70.08 107.88 66.56 109.64C63.04 111.4 58.9067 112.28 54.16 112.28Z" fill="url(#paint1_linear_11_6)"/>
<path d="M41.68 109.64L40.7746 111.423L40.7856 111.429L41.68 109.64ZM33.6 102.12L31.8704 103.124L31.874 103.13L31.8776 103.137L33.6 102.12ZM30.72 54.12V52.12H28.72V54.12H30.72ZM42.88 54.12H44.88V52.12H42.88V54.12ZM45.76 99.08L44.3081 100.455L44.3267 100.475L44.3458 100.494L45.76 99.08ZM62.48 99.08L63.9135 100.475L63.9227 100.465L63.9319 100.455L62.48 99.08ZM65.36 54.12V52.12H63.36V54.12H65.36ZM77.52 54.12H79.52V52.12H77.52V54.12ZM74.64 102.12L72.9104 101.116L72.9053 101.125L74.64 102.12ZM66.56 109.64L67.4544 111.429L67.4544 111.429L66.56 109.64ZM54.16 112.28V110.28C49.6033 110.28 45.7623 109.445 42.5744 107.851L41.68 109.64L40.7856 111.429C44.6377 113.355 49.1167 114.28 54.16 114.28V112.28ZM41.68 109.64L42.5854 107.857C39.4481 106.264 37.0428 104.019 35.3224 101.103L33.6 102.12L31.8776 103.137C33.9972 106.728 36.9786 109.496 40.7746 111.423L41.68 109.64ZM33.6 102.12L35.3296 101.116C33.613 98.1594 32.72 94.6502 32.72 90.52H30.72H28.72C28.72 95.2431 29.747 99.4673 31.8704 103.124L33.6 102.12ZM30.72 90.52H32.72V54.12H30.72H28.72V90.52H30.72ZM30.72 54.12V56.12H42.88V54.12V52.12H30.72V54.12ZM42.88 54.12H40.88V90.52H42.88H44.88V54.12H42.88ZM42.88 90.52H40.88C40.88 94.5442 41.9357 97.9513 44.3081 100.455L45.76 99.08L47.2119 97.7045C45.7443 96.1553 44.88 93.8558 44.88 90.52H42.88ZM45.76 99.08L44.3458 100.494C46.797 102.945 50.1685 104.04 54.16 104.04V102.04V100.04C50.8981 100.04 48.6697 99.1612 47.1742 97.6658L45.76 99.08ZM54.16 102.04V104.04C58.1481 104.04 61.5084 102.947 63.9135 100.475L62.48 99.08L61.0466 97.6853C59.6116 99.1601 57.4252 100.04 54.16 100.04V102.04ZM62.48 99.08L63.9319 100.455C66.3043 97.9513 67.36 94.5442 67.36 90.52H65.36H63.36C63.36 93.8558 62.4957 96.1553 61.0281 97.7045L62.48 99.08ZM65.36 90.52H67.36V54.12H65.36H63.36V90.52H65.36ZM65.36 54.12V56.12H77.52V54.12V52.12H65.36V54.12ZM77.52 54.12H75.52V90.52H77.52H79.52V54.12H77.52ZM77.52 90.52H75.52C75.52 94.6502 74.627 98.1594 72.9104 101.116L74.64 102.12L76.3696 103.124C78.493 99.4673 79.52 95.2431 79.52 90.52H77.52ZM74.64 102.12L72.9053 101.125C71.2444 104.019 68.8518 106.258 65.6656 107.851L66.56 109.64L67.4544 111.429C71.3082 109.502 74.3022 106.727 76.3747 103.115L74.64 102.12ZM66.56 109.64L65.6656 107.851C62.4748 109.447 58.6594 110.28 54.16 110.28V112.28V114.28C59.1539 114.28 63.6052 113.353 67.4544 111.429L66.56 109.64Z" fill="#338CFF" mask="url(#path-2-outside-1_11_6)"/>
<mask id="path-4-outside-2_11_6" maskUnits="userSpaceOnUse" x="86" y="52" width="55" height="61" fill="black">
<rect fill="white" x="86" y="52" width="55" height="61"/>
<path d="M88.92 111V54.2H101.08V79L121.72 54.2H135.88L115 79.24L137.16 111H123.32L107 87.4L101.08 94.28V111H88.92Z"/>
</mask>
<path d="M88.92 111V54.2H101.08V79L121.72 54.2H135.88L115 79.24L137.16 111H123.32L107 87.4L101.08 94.28V111H88.92Z" fill="url(#paint2_linear_11_6)"/>
<path d="M88.92 111H86.92V113H88.92V111ZM88.92 54.2V52.2H86.92V54.2H88.92ZM101.08 54.2H103.08V52.2H101.08V54.2ZM101.08 79H99.08V84.5296L102.617 80.2794L101.08 79ZM121.72 54.2V52.2H120.782L120.183 52.9206L121.72 54.2ZM135.88 54.2L137.416 55.4808L140.152 52.2H135.88V54.2ZM115 79.24L113.464 77.9591L112.486 79.132L113.36 80.3844L115 79.24ZM137.16 111V113H140.994L138.8 109.856L137.16 111ZM123.32 111L121.675 112.138L122.271 113H123.32V111ZM107 87.4L108.645 86.2624L107.173 84.1332L105.484 86.0955L107 87.4ZM101.08 94.28L99.564 92.9755L99.08 93.538V94.28H101.08ZM101.08 111V113H103.08V111H101.08ZM88.92 111H90.92V54.2H88.92H86.92V111H88.92ZM88.92 54.2V56.2H101.08V54.2V52.2H88.92V54.2ZM101.08 54.2H99.08V79H101.08H103.08V54.2H101.08ZM101.08 79L102.617 80.2794L123.257 55.4794L121.72 54.2L120.183 52.9206L99.5427 77.7206L101.08 79ZM121.72 54.2V56.2H135.88V54.2V52.2H121.72V54.2ZM135.88 54.2L134.344 52.9191L113.464 77.9591L115 79.24L116.536 80.5209L137.416 55.4808L135.88 54.2ZM115 79.24L113.36 80.3844L135.52 112.144L137.16 111L138.8 109.856L116.64 78.0956L115 79.24ZM137.16 111V109H123.32V111V113H137.16V111ZM123.32 111L124.965 109.862L108.645 86.2624L107 87.4L105.355 88.5375L121.675 112.138L123.32 111ZM107 87.4L105.484 86.0955L99.564 92.9755L101.08 94.28L102.596 95.5845L108.516 88.7045L107 87.4ZM101.08 94.28H99.08V111H101.08H103.08V94.28H101.08ZM101.08 111V109H88.92V111V113H101.08V111Z" fill="#338CFF" mask="url(#path-4-outside-2_11_6)"/>
<defs>
<radialGradient id="paint0_radial_11_6" cx="0" cy="0" r="1" gradientUnits="userSpaceOnUse" gradientTransform="translate(83 83) rotate(90) scale(83)">
<stop/>
<stop offset="1" stop-color="#0B2046"/>
</radialGradient>
<linearGradient id="paint1_linear_11_6" x1="54.5" y1="39" x2="54.5" y2="127" gradientUnits="userSpaceOnUse">
<stop stop-color="#338CFF"/>
<stop offset="1" stop-color="#04031C"/>
</linearGradient>
<linearGradient id="paint2_linear_11_6" x1="139" y1="83" x2="83" y2="83" gradientUnits="userSpaceOnUse">
<stop stop-color="#686DB0"/>
<stop offset="1" stop-color="#12103C"/>
</linearGradient>
</defs>
</svg>
