<svg xmlns="http://www.w3.org/2000/svg" width="498" height="64" viewBox="0 0 498 64" fill="none">
    <mask id="path-1-outside-1_2_2" maskUnits="userSpaceOnUse" x="0" y="0" width="498" height="64" fill="black">
        <rect fill="white" width="498" height="64" />
        <path
            d="M26.16 61.28C21.36 61.28 17.2 60.4 13.68 58.64C10.2133 56.88 7.52 54.3733 5.6 51.12C3.68 47.8133 2.72 43.9467 2.72 39.52V3.12H14.88V39.52C14.88 43.2 15.84 46.0533 17.76 48.08C19.7333 50.0533 22.5333 51.04 26.16 51.04C29.7867 51.04 32.56 50.0533 34.48 48.08C36.4 46.0533 37.36 43.2 37.36 39.52V3.12H49.52V39.52C49.52 43.9467 48.56 47.8133 46.64 51.12C44.7733 54.3733 42.08 56.88 38.56 58.64C35.04 60.4 30.9067 61.28 26.16 61.28ZM77.7962 60C73.3696 60 70.1162 58.9867 68.0362 56.96C65.9562 54.88 64.9162 51.6 64.9162 47.12V7.04H76.9162V45.68C76.9162 47.76 77.3429 49.1733 78.1962 49.92C79.1029 50.6667 80.4362 51.04 82.1963 51.04H88.1962V60H77.7962ZM58.0362 26.08V17.12H88.1962V26.08H58.0362ZM114.487 60.96C110.061 60.96 106.354 60.3467 103.367 59.12C100.381 57.84 98.0875 56.1333 96.4875 54C94.9408 51.8133 94.0608 49.3067 93.8475 46.48L106.007 46.08C106.381 48.1067 107.234 49.68 108.567 50.8C109.901 51.92 111.874 52.48 114.487 52.48C116.621 52.48 118.274 52.1333 119.447 51.44C120.674 50.7467 121.287 49.68 121.287 48.24C121.287 47.3333 121.074 46.5867 120.647 46C120.221 45.36 119.367 44.8267 118.087 44.4C116.861 43.92 115.021 43.4933 112.567 43.12C108.034 42.32 104.487 41.3867 101.927 40.32C99.3675 39.2533 97.5542 37.8667 96.4875 36.16C95.4208 34.4533 94.8875 32.3733 94.8875 29.92C94.8875 25.8133 96.4608 22.5067 99.6075 20C102.807 17.44 107.581 16.16 113.927 16.16C117.981 16.16 121.367 16.8 124.087 18.08C126.861 19.36 128.994 21.12 130.487 23.36C132.034 25.5467 132.994 28.0533 133.367 30.88L121.287 31.36C121.127 29.9733 120.701 28.8 120.007 27.84C119.367 26.8267 118.541 26.0533 117.527 25.52C116.514 24.9333 115.287 24.64 113.847 24.64C111.714 24.64 110.061 25.0933 108.887 26C107.767 26.8533 107.207 28 107.207 29.44C107.207 30.5067 107.447 31.3867 107.927 32.08C108.461 32.72 109.314 33.2533 110.487 33.68C111.661 34.1067 113.234 34.4533 115.207 34.72C119.794 35.36 123.421 36.2667 126.087 37.44C128.807 38.56 130.754 39.9733 131.927 41.68C133.101 43.3867 133.687 45.4933 133.687 48C133.687 50.7733 132.887 53.12 131.287 55.04C129.687 56.96 127.447 58.4267 124.567 59.44C121.741 60.4533 118.381 60.96 114.487 60.96ZM155.8 60.96C151.373 60.96 147.747 59.9467 144.92 57.92C142.147 55.84 140.76 52.96 140.76 49.28C140.76 45.4933 141.933 42.5867 144.28 40.56C146.68 38.48 150.2 36.96 154.84 36L168.68 33.28C168.68 30.5067 168.04 28.4267 166.76 27.04C165.533 25.6 163.747 24.88 161.4 24.88C159.107 24.88 157.32 25.4133 156.04 26.48C154.76 27.4933 153.933 29.0133 153.56 31.04L141.48 30.48C142.28 25.7867 144.387 22.24 147.8 19.84C151.267 17.3867 155.8 16.16 161.4 16.16C167.8 16.16 172.6 17.68 175.8 20.72C179.053 23.76 180.68 28.2133 180.68 34.08V48.72C180.68 49.9467 180.867 50.7733 181.24 51.2C181.667 51.5733 182.28 51.76 183.08 51.76H184.28V60C183.907 60.1067 183.293 60.2133 182.44 60.32C181.64 60.4267 180.84 60.48 180.04 60.48C178.333 60.48 176.733 60.1867 175.24 59.6C173.8 59.0133 172.627 58.0267 171.72 56.64C170.813 55.2 170.36 53.1733 170.36 50.56L171.4 51.36C170.867 53.28 169.907 54.96 168.52 56.4C167.187 57.84 165.427 58.96 163.24 59.76C161.107 60.56 158.627 60.96 155.8 60.96ZM158.68 52.72C160.653 52.72 162.387 52.3467 163.88 51.6C165.373 50.8 166.547 49.6533 167.4 48.16C168.253 46.6667 168.68 44.9067 168.68 42.88V40.8L158.92 42.88C157 43.2533 155.533 43.8933 154.52 44.8C153.56 45.6533 153.08 46.7733 153.08 48.16C153.08 49.6 153.56 50.72 154.52 51.52C155.48 52.32 156.867 52.72 158.68 52.72ZM201.526 60L185.846 17.12H198.406L208.566 47.92L218.646 17.12H231.206L215.446 60H201.526ZM260.239 60V3.2H272.399V28L293.039 3.2H307.199L286.319 28.24L308.479 60H294.639L278.319 36.4L272.399 43.28V60H260.239ZM315.574 60V3.2H327.574V27.12H325.974C326.4 24.6133 327.227 22.56 328.454 20.96C329.734 19.36 331.307 18.16 333.174 17.36C335.094 16.56 337.174 16.16 339.414 16.16C342.614 16.16 345.28 16.8533 347.414 18.24C349.547 19.6267 351.147 21.5467 352.214 24C353.334 26.4533 353.894 29.2533 353.894 32.4V60H341.894V35.28C341.894 32.08 341.387 29.68 340.374 28.08C339.414 26.48 337.76 25.68 335.414 25.68C332.96 25.68 331.04 26.5067 329.654 28.16C328.267 29.8133 327.574 32.2933 327.574 35.6V60H315.574ZM377.784 60.96C373.358 60.96 369.731 59.9467 366.904 57.92C364.131 55.84 362.744 52.96 362.744 49.28C362.744 45.4933 363.918 42.5867 366.264 40.56C368.664 38.48 372.184 36.96 376.824 36L390.664 33.28C390.664 30.5067 390.024 28.4267 388.744 27.04C387.518 25.6 385.731 24.88 383.384 24.88C381.091 24.88 379.304 25.4133 378.024 26.48C376.744 27.4933 375.918 29.0133 375.544 31.04L363.464 30.48C364.264 25.7867 366.371 22.24 369.784 19.84C373.251 17.3867 377.784 16.16 383.384 16.16C389.784 16.16 394.584 17.68 397.784 20.72C401.038 23.76 402.664 28.2133 402.664 34.08V48.72C402.664 49.9467 402.851 50.7733 403.224 51.2C403.651 51.5733 404.264 51.76 405.064 51.76H406.264V60C405.891 60.1067 405.278 60.2133 404.424 60.32C403.624 60.4267 402.824 60.48 402.024 60.48C400.318 60.48 398.718 60.1867 397.224 59.6C395.784 59.0133 394.611 58.0267 393.704 56.64C392.798 55.2 392.344 53.1733 392.344 50.56L393.384 51.36C392.851 53.28 391.891 54.96 390.504 56.4C389.171 57.84 387.411 58.96 385.224 59.76C383.091 60.56 380.611 60.96 377.784 60.96ZM380.664 52.72C382.638 52.72 384.371 52.3467 385.864 51.6C387.358 50.8 388.531 49.6533 389.384 48.16C390.238 46.6667 390.664 44.9067 390.664 42.88V40.8L380.904 42.88C378.984 43.2533 377.518 43.8933 376.504 44.8C375.544 45.6533 375.064 46.7733 375.064 48.16C375.064 49.6 375.544 50.72 376.504 51.52C377.464 52.32 378.851 52.72 380.664 52.72ZM429.581 60C425.154 60 421.901 58.9867 419.821 56.96C417.741 54.88 416.701 51.6 416.701 47.12V7.04H428.701V45.68C428.701 47.76 429.127 49.1733 429.981 49.92C430.887 50.6667 432.221 51.04 433.981 51.04H439.981V60H429.581ZM409.821 26.08V17.12H439.981V26.08H409.821ZM449.436 60V17.12H460.796L461.196 29.6L460.316 29.36C461.01 25.04 462.236 21.92 463.996 20C465.756 18.08 468.183 17.12 471.276 17.12H475.196V27.04H471.276C469.036 27.04 467.196 27.3333 465.756 27.92C464.316 28.5067 463.223 29.44 462.476 30.72C461.783 32 461.436 33.7333 461.436 35.92V60H449.436ZM483.068 60V17.12H495.068V60H483.068ZM482.828 11.84V2.24H495.228V11.84H482.828Z" />
    </mask>
    <path
        d="M13.68 58.64L12.7746 60.4234L12.7856 60.4289L13.68 58.64ZM5.6 51.12L3.87042 52.1243L3.87398 52.1304L3.87759 52.1365L5.6 51.12ZM2.72 3.12V1.12H0.72V3.12H2.72ZM14.88 3.12H16.88V1.12H14.88V3.12ZM17.76 48.08L16.3081 49.4555L16.3267 49.4751L16.3458 49.4942L17.76 48.08ZM34.48 48.08L35.9135 49.4747L35.9227 49.4652L35.9319 49.4555L34.48 48.08ZM37.36 3.12V1.12H35.36V3.12H37.36ZM49.52 3.12H51.52V1.12H49.52V3.12ZM46.64 51.12L44.9104 50.1157L44.9053 50.1247L46.64 51.12ZM38.56 58.64L39.4544 60.4289L39.4544 60.4289L38.56 58.64ZM26.16 61.28V59.28C21.6033 59.28 17.7623 58.4451 14.5744 56.8511L13.68 58.64L12.7856 60.4289C16.6377 62.3549 21.1167 63.28 26.16 63.28V61.28ZM13.68 58.64L14.5854 56.8567C11.4481 55.2639 9.04282 53.0186 7.32242 50.1035L5.6 51.12L3.87759 52.1365C5.99718 55.728 8.97857 58.4961 12.7746 60.4233L13.68 58.64ZM5.6 51.12L7.32958 50.1157C5.61299 47.1594 4.72 43.6502 4.72 39.52H2.72H0.72C0.72 44.2431 1.74701 48.4673 3.87042 52.1243L5.6 51.12ZM2.72 39.52H4.72V3.12H2.72H0.72V39.52H2.72ZM2.72 3.12V5.12H14.88V3.12V1.12H2.72V3.12ZM14.88 3.12H12.88V39.52H14.88H16.88V3.12H14.88ZM14.88 39.52H12.88C12.88 43.5442 13.9357 46.9513 16.3081 49.4555L17.76 48.08L19.2119 46.7045C17.7443 45.1553 16.88 42.8558 16.88 39.52H14.88ZM17.76 48.08L16.3458 49.4942C18.797 51.9454 22.1685 53.04 26.16 53.04V51.04V49.04C22.8981 49.04 20.6697 48.1612 19.1742 46.6658L17.76 48.08ZM26.16 51.04V53.04C30.1481 53.04 33.5084 51.9466 35.9135 49.4747L34.48 48.08L33.0466 46.6853C31.6116 48.1601 29.4252 49.04 26.16 49.04V51.04ZM34.48 48.08L35.9319 49.4555C38.3043 46.9513 39.36 43.5442 39.36 39.52H37.36H35.36C35.36 42.8558 34.4957 45.1553 33.0281 46.7045L34.48 48.08ZM37.36 39.52H39.36V3.12H37.36H35.36V39.52H37.36ZM37.36 3.12V5.12H49.52V3.12V1.12H37.36V3.12ZM49.52 3.12H47.52V39.52H49.52H51.52V3.12H49.52ZM49.52 39.52H47.52C47.52 43.6502 46.627 47.1594 44.9104 50.1157L46.64 51.12L48.3696 52.1243C50.493 48.4673 51.52 44.2431 51.52 39.52H49.52ZM46.64 51.12L44.9053 50.1247C43.2444 53.0192 40.8518 55.258 37.6656 56.8511L38.56 58.64L39.4544 60.4289C43.3082 58.502 46.3022 55.7274 48.3747 52.1153L46.64 51.12ZM38.56 58.64L37.6656 56.8511C34.4748 58.4465 30.6594 59.28 26.16 59.28V61.28V63.28C31.1539 63.28 35.6052 62.3535 39.4544 60.4289L38.56 58.64ZM68.0362 56.96L66.622 58.3742L66.6312 58.3834L66.6405 58.3925L68.0362 56.96ZM64.9162 7.04V5.04H62.9162V7.04H64.9162ZM76.9162 7.04H78.9162V5.04H76.9162V7.04ZM78.1962 49.92L76.8792 51.4252L76.9017 51.4448L76.9248 51.4639L78.1962 49.92ZM88.1962 51.04H90.1962V49.04H88.1962V51.04ZM88.1962 60V62H90.1962V60H88.1962ZM58.0362 26.08H56.0362V28.08H58.0362V26.08ZM58.0362 17.12V15.12H56.0362V17.12H58.0362ZM88.1962 17.12H90.1962V15.12H88.1962V17.12ZM88.1962 26.08V28.08H90.1962V26.08H88.1962ZM77.7962 60V58C73.6237 58 70.983 57.0388 69.432 55.5275L68.0362 56.96L66.6405 58.3925C69.2495 60.9346 73.1155 62 77.7962 62V60ZM68.0362 56.96L69.4505 55.5458C67.9021 53.9974 66.9162 51.342 66.9162 47.12H64.9162H62.9162C62.9162 51.858 64.0104 55.7626 66.622 58.3742L68.0362 56.96ZM64.9162 47.12H66.9162V7.04H64.9162H62.9162V47.12H64.9162ZM64.9162 7.04V9.04H76.9162V7.04V5.04H64.9162V7.04ZM76.9162 7.04H74.9162V45.68H76.9162H78.9162V7.04H76.9162ZM76.9162 45.68H74.9162C74.9162 47.8922 75.3428 50.0808 76.8792 51.4252L78.1962 49.92L79.5133 48.4148C79.343 48.2659 78.9162 47.6278 78.9162 45.68H76.9162ZM78.1962 49.92L76.9248 51.4639C78.3302 52.6212 80.1948 53.04 82.1963 53.04V51.04V49.04C80.6777 49.04 79.8757 48.7121 79.4677 48.3761L78.1962 49.92ZM82.1963 51.04V53.04H88.1962V51.04V49.04H82.1963V51.04ZM88.1962 51.04H86.1962V60H88.1962H90.1962V51.04H88.1962ZM88.1962 60V58H77.7962V60V62H88.1962V60ZM58.0362 26.08H60.0362V17.12H58.0362H56.0362V26.08H58.0362ZM58.0362 17.12V19.12H88.1962V17.12V15.12H58.0362V17.12ZM88.1962 17.12H86.1962V26.08H88.1962H90.1962V17.12H88.1962ZM88.1962 26.08V24.08H58.0362V26.08V28.08H88.1962V26.08ZM103.367 59.12L102.58 60.9583L102.594 60.9643L102.608 60.97L103.367 59.12ZM96.4875 54L94.8547 55.1549L94.8708 55.1777L94.8875 55.2L96.4875 54ZM93.8475 46.48L93.7817 44.4811L91.6961 44.5497L91.8532 46.6305L93.8475 46.48ZM106.007 46.08L107.974 45.7177L107.662 44.0245L105.942 44.0811L106.007 46.08ZM108.567 50.8L109.854 49.2686L109.854 49.2686L108.567 50.8ZM119.447 51.44L118.463 49.6989L118.447 49.7083L118.43 49.7181L119.447 51.44ZM120.647 46L118.983 47.1094L119.006 47.1433L119.03 47.1763L120.647 46ZM118.087 44.4L117.359 46.2625L117.406 46.2812L117.455 46.2974L118.087 44.4ZM112.567 43.12L112.22 45.0896L112.243 45.0937L112.267 45.0972L112.567 43.12ZM101.927 40.32L102.697 38.4738L102.697 38.4738L101.927 40.32ZM96.4875 36.16L94.7915 37.22L94.7915 37.22L96.4875 36.16ZM99.6075 20L100.854 21.5643L100.857 21.5617L99.6075 20ZM124.087 18.08L123.236 19.8896L123.243 19.8928L123.249 19.8959L124.087 18.08ZM130.487 23.36L128.823 24.4694L128.839 24.4924L128.855 24.5149L130.487 23.36ZM133.367 30.88L133.447 32.8784L135.637 32.7914L135.35 30.6181L133.367 30.88ZM121.287 31.36L119.301 31.5892L119.513 33.4321L121.367 33.3584L121.287 31.36ZM120.007 27.84L118.317 28.908L118.35 28.9606L118.386 29.011L120.007 27.84ZM117.527 25.52L116.525 27.2509L116.56 27.2711L116.596 27.2898L117.527 25.52ZM108.887 26L110.1 27.5909L110.11 27.5826L108.887 26ZM107.927 32.08L106.283 33.2184L106.334 33.2918L106.391 33.3604L107.927 32.08ZM110.487 33.68L111.171 31.8004L111.171 31.8004L110.487 33.68ZM115.207 34.72L115.484 32.7392L115.475 32.738L115.207 34.72ZM126.087 37.44L125.282 39.2706L125.304 39.2803L125.326 39.2894L126.087 37.44ZM131.927 41.68L130.279 42.8131L130.279 42.8131L131.927 41.68ZM131.287 55.04L129.751 53.7596L129.751 53.7596L131.287 55.04ZM124.567 59.44L123.904 57.5533L123.893 57.5573L124.567 59.44ZM114.487 60.96V58.96C110.231 58.96 106.801 58.3682 104.127 57.27L103.367 59.12L102.608 60.97C105.907 62.3251 109.891 62.96 114.487 62.96V60.96ZM103.367 59.12L104.155 57.2817C101.421 56.1097 99.4359 54.5979 98.0875 52.8L96.4875 54L94.8875 55.2C96.7391 57.6688 99.3411 59.5703 102.58 60.9583L103.367 59.12ZM96.4875 54L98.1203 52.8451C96.7953 50.9718 96.0295 48.8168 95.8418 46.3295L93.8475 46.48L91.8532 46.6305C92.0921 49.7966 93.0864 52.6549 94.8547 55.1549L96.4875 54ZM93.8475 46.48L93.9133 48.4789L106.073 48.0789L106.007 46.08L105.942 44.0811L93.7817 44.4811L93.8475 46.48ZM106.007 46.08L104.041 46.4423C104.482 48.8383 105.529 50.8599 107.281 52.3314L108.567 50.8L109.854 49.2686C108.939 48.5001 108.28 47.3751 107.974 45.7177L106.007 46.08ZM108.567 50.8L107.281 52.3314C109.117 53.8736 111.631 54.48 114.487 54.48V52.48V50.48C112.118 50.48 110.685 49.9664 109.854 49.2686L108.567 50.8ZM114.487 52.48V54.48C116.794 54.48 118.856 54.1125 120.465 53.1619L119.447 51.44L118.43 49.7181C117.692 50.1541 116.447 50.48 114.487 50.48V52.48ZM119.447 51.44L120.432 53.1811C122.303 52.1234 123.287 50.3814 123.287 48.24H121.287H119.287C119.287 48.9786 119.045 49.3699 118.463 49.6989L119.447 51.44ZM121.287 48.24H123.287C123.287 47.0175 122.996 45.8295 122.265 44.8237L120.647 46L119.03 47.1763C119.152 47.3439 119.287 47.6492 119.287 48.24H121.287ZM120.647 46L122.312 44.8906C121.512 43.6911 120.138 42.9752 118.72 42.5026L118.087 44.4L117.455 46.2974C118.597 46.6782 118.93 47.0289 118.983 47.1094L120.647 46ZM118.087 44.4L118.816 42.5375C117.379 41.9753 115.364 41.5225 112.868 41.1428L112.567 43.12L112.267 45.0972C114.678 45.4642 116.342 45.8647 117.359 46.2625L118.087 44.4ZM112.567 43.12L112.915 41.1504C108.445 40.3616 105.062 39.4592 102.697 38.4738L101.927 40.32L101.158 42.1662C103.913 43.3141 107.623 44.2784 112.22 45.0896L112.567 43.12ZM101.927 40.32L102.697 38.4738C100.379 37.5079 98.9611 36.3442 98.1835 35.1L96.4875 36.16L94.7915 37.22C96.1472 39.3891 98.3565 40.9987 101.158 42.1662L101.927 40.32ZM96.4875 36.16L98.1835 35.1C97.355 33.7745 96.8875 32.0809 96.8875 29.92H94.8875H92.8875C92.8875 32.6658 93.4866 35.1322 94.7915 37.22L96.4875 36.16ZM94.8875 29.92H96.8875C96.8875 26.4076 98.1948 23.6824 100.854 21.5643L99.6075 20L98.3613 18.4357C94.7269 21.3309 92.8875 25.2191 92.8875 29.92H94.8875ZM99.6075 20L100.857 21.5617C103.554 19.4041 107.799 18.16 113.927 18.16V16.16V14.16C107.362 14.16 102.061 15.4759 98.3581 18.4383L99.6075 20ZM113.927 16.16V18.16C117.784 18.16 120.858 18.7707 123.236 19.8896L124.087 18.08L124.939 16.2704C121.877 14.8293 118.178 14.16 113.927 14.16V16.16ZM124.087 18.08L123.249 19.8959C125.734 21.0425 127.561 22.5764 128.823 24.4694L130.487 23.36L132.152 22.2506C130.427 19.6636 127.988 17.6775 124.926 16.2641L124.087 18.08ZM130.487 23.36L128.855 24.5149C130.202 26.4197 131.051 28.6155 131.385 31.1419L133.367 30.88L135.35 30.6181C134.937 27.4911 133.866 24.6737 132.12 22.2051L130.487 23.36ZM133.367 30.88L133.288 28.8816L121.208 29.3616L121.287 31.36L121.367 33.3584L133.447 32.8784L133.367 30.88ZM121.287 31.36L123.274 31.1307C123.082 29.4651 122.556 27.9524 121.629 26.669L120.007 27.84L118.386 29.011C118.846 29.6476 119.173 30.4816 119.301 31.5892L121.287 31.36ZM120.007 27.84L121.698 26.772C120.88 25.4766 119.797 24.4546 118.459 23.7502L117.527 25.52L116.596 27.2898C117.284 27.6521 117.855 28.1767 118.317 28.908L120.007 27.84ZM117.527 25.52L118.53 23.7891C117.149 22.9899 115.559 22.64 113.847 22.64V24.64V26.64C115.016 26.64 115.879 26.8768 116.525 27.2509L117.527 25.52ZM113.847 24.64V22.64C111.46 22.64 109.313 23.144 107.665 24.4174L108.887 26L110.11 27.5826C110.809 27.0426 111.969 26.64 113.847 26.64V24.64ZM108.887 26L107.675 24.4091C106.046 25.6507 105.207 27.3924 105.207 29.44H107.207H109.207C109.207 28.6076 109.489 28.0559 110.1 27.5909L108.887 26ZM107.207 29.44H105.207C105.207 30.8055 105.517 32.1116 106.283 33.2184L107.927 32.08L109.572 30.9416C109.378 30.6617 109.207 30.2078 109.207 29.44H107.207ZM107.927 32.08L106.391 33.3604C107.236 34.3747 108.452 35.0679 109.804 35.5596L110.487 33.68L111.171 31.8004C110.176 31.4387 109.685 31.0653 109.464 30.7996L107.927 32.08ZM110.487 33.68L109.804 35.5596C111.167 36.0552 112.898 36.426 114.94 36.702L115.207 34.72L115.475 32.738C113.571 32.4806 112.155 32.1582 111.171 31.8004L110.487 33.68ZM115.207 34.72L114.931 36.7008C119.429 37.3284 122.853 38.2018 125.282 39.2706L126.087 37.44L126.893 35.6094C123.989 34.3315 120.159 33.3916 115.484 32.7392L115.207 34.72ZM126.087 37.44L125.326 39.2894C127.831 40.321 129.4 41.534 130.279 42.8131L131.927 41.68L133.576 40.5469C132.108 38.4126 129.784 36.799 126.849 35.5906L126.087 37.44ZM131.927 41.68L130.279 42.8131C131.179 44.1216 131.687 45.8115 131.687 48H133.687H135.687C135.687 45.1752 135.023 42.6517 133.576 40.5469L131.927 41.68ZM133.687 48H131.687C131.687 50.3602 131.018 52.239 129.751 53.7596L131.287 55.04L132.824 56.3204C134.757 54.001 135.687 51.1865 135.687 48H133.687ZM131.287 55.04L129.751 53.7596C128.428 55.3471 126.519 56.6333 123.904 57.5534L124.567 59.44L125.231 61.3266C128.376 60.2201 130.947 58.5729 132.824 56.3204L131.287 55.04ZM124.567 59.44L123.893 57.5573C121.336 58.4738 118.215 58.96 114.487 58.96V60.96V62.96C118.546 62.96 122.146 62.4328 125.242 61.3227L124.567 59.44ZM144.92 57.92L143.72 59.52L143.737 59.5329L143.755 59.5454L144.92 57.92ZM144.28 40.56L145.587 42.0736L145.59 42.0714L144.28 40.56ZM154.84 36L154.454 34.0375L154.445 34.0395L154.435 34.0415L154.84 36ZM168.68 33.28L169.066 35.2425L170.68 34.9252V33.28H168.68ZM166.76 27.04L165.238 28.3369L165.263 28.3673L165.29 28.3966L166.76 27.04ZM156.04 26.48L157.281 28.0481L157.301 28.0325L157.32 28.0164L156.04 26.48ZM153.56 31.04L153.467 33.0379L155.211 33.1187L155.527 31.4023L153.56 31.04ZM141.48 30.48L139.508 30.1439L139.128 32.3731L141.387 32.4779L141.48 30.48ZM147.8 19.84L148.95 21.4761L148.955 21.4725L147.8 19.84ZM175.8 20.72L174.423 22.17L174.428 22.1757L174.435 22.1813L175.8 20.72ZM181.24 51.2L179.735 52.517L179.823 52.6174L179.923 52.7051L181.24 51.2ZM184.28 51.76H186.28V49.76H184.28V51.76ZM184.28 60L184.829 61.923L186.28 61.5086V60H184.28ZM182.44 60.32L182.192 58.3354L182.184 58.3365L182.176 58.3375L182.44 60.32ZM175.24 59.6L174.485 61.4522L174.497 61.4569L174.509 61.4615L175.24 59.6ZM171.72 56.64L170.028 57.7056L170.037 57.7201L170.046 57.7345L171.72 56.64ZM170.36 50.56L171.579 48.9748L168.36 46.4983V50.56H170.36ZM171.4 51.36L173.327 51.8953L173.688 50.5966L172.619 49.7748L171.4 51.36ZM168.52 56.4L167.079 55.0127L167.066 55.0268L167.052 55.0412L168.52 56.4ZM163.24 59.76L162.553 57.8818L162.545 57.8845L162.538 57.8873L163.24 59.76ZM163.88 51.6L164.774 53.3889L164.8 53.3763L164.824 53.363L163.88 51.6ZM167.4 48.16L169.136 49.1523L169.136 49.1523L167.4 48.16ZM168.68 40.8H170.68V38.3289L168.263 38.8439L168.68 40.8ZM158.92 42.88L159.302 44.8432L159.319 44.8398L159.337 44.8361L158.92 42.88ZM154.52 44.8L155.849 46.2948L155.854 46.2905L154.52 44.8ZM154.52 51.52L153.24 53.0564L153.24 53.0564L154.52 51.52ZM155.8 60.96V58.96C151.677 58.96 148.49 58.0185 146.085 56.2946L144.92 57.92L143.755 59.5454C147.004 61.8748 151.07 62.96 155.8 62.96V60.96ZM144.92 57.92L146.12 56.32C143.885 54.644 142.76 52.3756 142.76 49.28H140.76H138.76C138.76 53.5444 140.408 57.036 143.72 59.52L144.92 57.92ZM140.76 49.28H142.76C142.76 45.9344 143.777 43.6375 145.587 42.0736L144.28 40.56L142.973 39.0464C140.09 41.5359 138.76 45.0523 138.76 49.28H140.76ZM144.28 40.56L145.59 42.0714C147.635 40.2989 150.788 38.8808 155.245 37.9585L154.84 36L154.435 34.0415C149.612 35.0392 145.725 36.6611 142.97 39.0486L144.28 40.56ZM154.84 36L155.226 37.9625L169.066 35.2425L168.68 33.28L168.294 31.3175L154.454 34.0375L154.84 36ZM168.68 33.28H170.68C170.68 30.2363 169.981 27.5807 168.23 25.6834L166.76 27.04L165.29 28.3966C166.099 29.2726 166.68 30.777 166.68 33.28H168.68ZM166.76 27.04L168.282 25.7431C166.587 23.7522 164.179 22.88 161.4 22.88V24.88V26.88C163.314 26.88 164.48 27.4478 165.238 28.3369L166.76 27.04ZM161.4 24.88V22.88C158.814 22.88 156.514 23.4816 154.76 24.9436L156.04 26.48L157.32 28.0164C158.126 27.345 159.399 26.88 161.4 26.88V24.88ZM156.04 26.48L154.799 24.9119C153.047 26.2985 152.03 28.3035 151.593 30.6777L153.56 31.04L155.527 31.4023C155.836 29.7232 156.473 28.6881 157.281 28.0481L156.04 26.48ZM153.56 31.04L153.653 29.0421L141.573 28.4821L141.48 30.48L141.387 32.4779L153.467 33.0379L153.56 31.04ZM141.48 30.48L143.452 30.8161C144.176 26.5675 146.036 23.5254 148.95 21.4761L147.8 19.84L146.65 18.2039C142.738 20.9546 140.384 25.0058 139.508 30.1439L141.48 30.48ZM147.8 19.84L148.955 21.4725C151.991 19.324 156.083 18.16 161.4 18.16V16.16V14.16C155.517 14.16 150.542 15.4493 146.645 18.2075L147.8 19.84ZM161.4 16.16V18.16C167.517 18.16 171.732 19.6145 174.423 22.17L175.8 20.72L177.178 19.27C173.468 15.7455 168.083 14.16 161.4 14.16V16.16ZM175.8 20.72L174.435 22.1813C177.166 24.7333 178.68 28.5828 178.68 34.08H180.68H182.68C182.68 27.8439 180.941 22.7867 177.165 19.2587L175.8 20.72ZM180.68 34.08H178.68V48.72H180.68H182.68V34.08H180.68ZM180.68 48.72H178.68C178.68 49.4219 178.732 50.0942 178.869 50.7005C179.002 51.2904 179.247 51.9595 179.735 52.517L181.24 51.2L182.745 49.883C182.86 50.0139 182.824 50.0563 182.771 49.8195C182.721 49.5992 182.68 49.2448 182.68 48.72H180.68ZM181.24 51.2L179.923 52.7051C180.84 53.5072 181.993 53.76 183.08 53.76V51.76V49.76C182.567 49.76 182.494 49.6395 182.557 49.6948L181.24 51.2ZM183.08 51.76V53.76H184.28V51.76V49.76H183.08V51.76ZM184.28 51.76H182.28V60H184.28H186.28V51.76H184.28ZM184.28 60L183.731 58.077C183.517 58.138 183.035 58.23 182.192 58.3354L182.44 60.32L182.688 62.3046C183.551 62.1966 184.297 62.0753 184.829 61.923L184.28 60ZM182.44 60.32L182.176 58.3375C181.463 58.4326 180.751 58.48 180.04 58.48V60.48V62.48C180.929 62.48 181.817 62.4207 182.704 62.3025L182.44 60.32ZM180.04 60.48V58.48C178.568 58.48 177.217 58.2279 175.971 57.7385L175.24 59.6L174.509 61.4615C176.25 62.1454 178.099 62.48 180.04 62.48V60.48ZM175.24 59.6L175.995 57.7478C174.956 57.3247 174.094 56.6156 173.394 55.5455L171.72 56.64L170.046 57.7345C171.16 59.4378 172.644 60.7019 174.485 61.4522L175.24 59.6ZM171.72 56.64L173.412 55.5744C172.787 54.5813 172.36 52.983 172.36 50.56H170.36H168.36C168.36 53.3637 168.839 55.8187 170.028 57.7056L171.72 56.64ZM170.36 50.56L169.141 52.1452L170.181 52.9452L171.4 51.36L172.619 49.7748L171.579 48.9748L170.36 50.56ZM171.4 51.36L169.473 50.8247C169.029 52.4237 168.236 53.8111 167.079 55.0127L168.52 56.4L169.961 57.7873C171.577 56.1089 172.705 54.1363 173.327 51.8953L171.4 51.36ZM168.52 56.4L167.052 55.0412C165.971 56.2091 164.497 57.1704 162.553 57.8818L163.24 59.76L163.927 61.6382C166.356 60.7496 168.402 59.4709 169.988 57.7588L168.52 56.4ZM163.24 59.76L162.538 57.8873C160.676 58.5856 158.442 58.96 155.8 58.96V60.96V62.96C158.811 62.96 161.538 62.5344 163.942 61.6327L163.24 59.76ZM158.68 52.72V54.72C160.908 54.72 162.957 54.2975 164.774 53.3889L163.88 51.6L162.986 49.8111C161.816 50.3958 160.399 50.72 158.68 50.72V52.72ZM163.88 51.6L164.824 53.363C166.654 52.3827 168.1 50.9665 169.136 49.1523L167.4 48.16L165.664 47.1677C164.994 48.3401 164.092 49.2173 162.936 49.837L163.88 51.6ZM167.4 48.16L169.136 49.1523C170.191 47.3068 170.68 45.1923 170.68 42.88H168.68H166.68C166.68 44.621 166.316 46.0265 165.664 47.1677L167.4 48.16ZM168.68 42.88H170.68V40.8H168.68H166.68V42.88H168.68ZM168.68 40.8L168.263 38.8439L158.503 40.9239L158.92 42.88L159.337 44.8361L169.097 42.7561L168.68 40.8ZM158.92 42.88L158.538 40.9168C156.411 41.3305 154.561 42.0792 153.186 43.3095L154.52 44.8L155.854 46.2905C156.505 45.7074 157.589 45.1762 159.302 44.8432L158.92 42.88ZM154.52 44.8L153.191 43.3052C151.767 44.5708 151.08 46.2533 151.08 48.16H153.08H155.08C155.08 47.2934 155.353 46.7359 155.849 46.2948L154.52 44.8ZM153.08 48.16H151.08C151.08 50.0925 151.751 51.8162 153.24 53.0564L154.52 51.52L155.8 49.9836C155.369 49.6238 155.08 49.1075 155.08 48.16H153.08ZM154.52 51.52L153.24 53.0564C154.691 54.2656 156.605 54.72 158.68 54.72V52.72V50.72C157.129 50.72 156.269 50.3744 155.8 49.9836L154.52 51.52ZM201.526 60L199.647 60.6869L200.127 62H201.526V60ZM185.846 17.12V15.12H182.985L183.967 17.8069L185.846 17.12ZM198.406 17.12L200.305 16.4935L199.852 15.12H198.406V17.12ZM208.566 47.92L206.666 48.5465L208.573 54.3271L210.466 48.5421L208.566 47.92ZM218.646 17.12V15.12H217.196L216.745 16.4979L218.646 17.12ZM231.206 17.12L233.083 17.8099L234.071 15.12H231.206V17.12ZM215.446 60V62H216.841L217.323 60.6899L215.446 60ZM201.526 60L203.404 59.3131L187.724 16.4331L185.846 17.12L183.967 17.8069L199.647 60.6869L201.526 60ZM185.846 17.12V19.12H198.406V17.12V15.12H185.846V17.12ZM198.406 17.12L196.506 17.7465L206.666 48.5465L208.566 47.92L210.465 47.2935L200.305 16.4935L198.406 17.12ZM208.566 47.92L210.466 48.5421L220.546 17.7421L218.646 17.12L216.745 16.4979L206.665 47.2979L208.566 47.92ZM218.646 17.12V19.12H231.206V17.12V15.12H218.646V17.12ZM231.206 17.12L229.328 16.43L213.568 59.3101L215.446 60L217.323 60.6899L233.083 17.8099L231.206 17.12ZM215.446 60V58H201.526V60V62H215.446V60ZM260.239 60H258.239V62H260.239V60ZM260.239 3.2V1.2H258.239V3.2H260.239ZM272.399 3.2H274.399V1.2H272.399V3.2ZM272.399 28H270.399V33.5296L273.936 29.2794L272.399 28ZM293.039 3.2V1.2H292.101L291.502 1.9206L293.039 3.2ZM307.199 3.2L308.735 4.48085L311.471 1.2H307.199V3.2ZM286.319 28.24L284.783 26.9591L283.805 28.132L284.679 29.3844L286.319 28.24ZM308.479 60V62H312.313L310.119 58.8556L308.479 60ZM294.639 60L292.994 61.1375L293.59 62H294.639V60ZM278.319 36.4L279.964 35.2624L278.491 33.1332L276.803 35.0955L278.319 36.4ZM272.399 43.28L270.883 41.9755L270.399 42.538V43.28H272.399ZM272.399 60V62H274.399V60H272.399ZM260.239 60H262.239V3.2H260.239H258.239V60H260.239ZM260.239 3.2V5.2H272.399V3.2V1.2H260.239V3.2ZM272.399 3.2H270.399V28H272.399H274.399V3.2H272.399ZM272.399 28L273.936 29.2794L294.576 4.47939L293.039 3.2L291.502 1.9206L270.862 26.7206L272.399 28ZM293.039 3.2V5.2H307.199V3.2V1.2H293.039V3.2ZM307.199 3.2L305.663 1.91915L284.783 26.9591L286.319 28.24L287.855 29.5209L308.735 4.48085L307.199 3.2ZM286.319 28.24L284.679 29.3844L306.839 61.1444L308.479 60L310.119 58.8556L287.959 27.0956L286.319 28.24ZM308.479 60V58H294.639V60V62H308.479V60ZM294.639 60L296.284 58.8625L279.964 35.2624L278.319 36.4L276.674 37.5375L292.994 61.1375L294.639 60ZM278.319 36.4L276.803 35.0955L270.883 41.9755L272.399 43.28L273.915 44.5845L279.835 37.7045L278.319 36.4ZM272.399 43.28H270.399V60H272.399H274.399V43.28H272.399ZM272.399 60V58H260.239V60V62H272.399V60ZM315.574 60H313.574V62H315.574V60ZM315.574 3.2V1.2H313.574V3.2H315.574ZM327.574 3.2H329.574V1.2H327.574V3.2ZM327.574 27.12V29.12H329.574V27.12H327.574ZM325.974 27.12L324.002 26.7844L323.605 29.12H325.974V27.12ZM328.454 20.96L326.892 19.7106L326.879 19.7267L326.867 19.7431L328.454 20.96ZM333.174 17.36L332.405 15.5138L332.395 15.5177L332.386 15.5217L333.174 17.36ZM347.414 18.24L346.324 19.9169L346.324 19.9169L347.414 18.24ZM352.214 24L350.38 24.7975L350.387 24.8141L350.394 24.8306L352.214 24ZM353.894 60V62H355.894V60H353.894ZM341.894 60H339.894V62H341.894V60ZM340.374 28.08L338.659 29.109L338.671 29.1297L338.684 29.1501L340.374 28.08ZM329.654 28.16L328.121 26.8748L328.121 26.8748L329.654 28.16ZM327.574 60V62H329.574V60H327.574ZM315.574 60H317.574V3.2H315.574H313.574V60H315.574ZM315.574 3.2V5.2H327.574V3.2V1.2H315.574V3.2ZM327.574 3.2H325.574V27.12H327.574H329.574V3.2H327.574ZM327.574 27.12V25.12H325.974V27.12V29.12H327.574V27.12ZM325.974 27.12L327.945 27.4556C328.331 25.1877 329.057 23.46 330.041 22.1769L328.454 20.96L326.867 19.7431C325.397 21.66 324.469 24.039 324.002 26.7844L325.974 27.12ZM328.454 20.96L330.016 22.2094C331.092 20.864 332.4 19.8674 333.962 19.1983L333.174 17.36L332.386 15.5217C330.214 16.4526 328.376 17.856 326.892 19.7106L328.454 20.96ZM333.174 17.36L333.943 19.2062C335.601 18.5153 337.417 18.16 339.414 18.16V16.16V14.16C336.93 14.16 334.587 14.6047 332.405 15.5138L333.174 17.36ZM339.414 16.16V18.16C342.326 18.16 344.589 18.7894 346.324 19.9169L347.414 18.24L348.504 16.5631C345.972 14.9172 342.901 14.16 339.414 14.16V16.16ZM347.414 18.24L346.324 19.9169C348.111 21.0784 349.461 22.6844 350.38 24.7975L352.214 24L354.048 23.2025C352.833 20.4089 350.983 18.1749 348.504 16.5631L347.414 18.24ZM352.214 24L350.394 24.8306C351.377 26.9832 351.894 29.4925 351.894 32.4H353.894H355.894C355.894 29.0142 355.29 25.9234 354.033 23.1694L352.214 24ZM353.894 32.4H351.894V60H353.894H355.894V32.4H353.894ZM353.894 60V58H341.894V60V62H353.894V60ZM341.894 60H343.894V35.28H341.894H339.894V60H341.894ZM341.894 35.28H343.894C343.894 31.9334 343.376 29.0817 342.063 27.0099L340.374 28.08L338.684 29.1501C339.399 30.2783 339.894 32.2266 339.894 35.28H341.894ZM340.374 28.08L342.089 27.051C340.671 24.6888 338.254 23.68 335.414 23.68V25.68V27.68C337.267 27.68 338.156 28.2712 338.659 29.109L340.374 28.08ZM335.414 25.68V23.68C332.46 23.68 329.943 24.7032 328.121 26.8748L329.654 28.16L331.186 29.4452C332.138 28.3102 333.461 27.68 335.414 27.68V25.68ZM329.654 28.16L328.121 26.8748C326.308 29.0367 325.574 32.0624 325.574 35.6H327.574H329.574C329.574 32.5242 330.226 30.59 331.186 29.4452L329.654 28.16ZM327.574 35.6H325.574V60H327.574H329.574V35.6H327.574ZM327.574 60V58H315.574V60V62H327.574V60ZM366.904 57.92L365.704 59.52L365.722 59.5329L365.739 59.5454L366.904 57.92ZM366.264 40.56L367.572 42.0736L367.574 42.0714L366.264 40.56ZM376.824 36L376.439 34.0375L376.429 34.0395L376.419 34.0415L376.824 36ZM390.664 33.28L391.05 35.2425L392.664 34.9252V33.28H390.664ZM388.744 27.04L387.222 28.3369L387.248 28.3673L387.275 28.3966L388.744 27.04ZM378.024 26.48L379.266 28.0481L379.285 28.0325L379.305 28.0164L378.024 26.48ZM375.544 31.04L375.452 33.0379L377.195 33.1187L377.511 31.4023L375.544 31.04ZM363.464 30.48L361.493 30.1439L361.113 32.3731L363.372 32.4779L363.464 30.48ZM369.784 19.84L370.935 21.4761L370.94 21.4725L369.784 19.84ZM397.784 20.72L396.407 22.17L396.413 22.1757L396.419 22.1813L397.784 20.72ZM403.224 51.2L401.719 52.517L401.807 52.6174L401.907 52.7051L403.224 51.2ZM406.264 51.76H408.264V49.76H406.264V51.76ZM406.264 60L406.814 61.923L408.264 61.5086V60H406.264ZM404.424 60.32L404.176 58.3354L404.168 58.3365L404.16 58.3375L404.424 60.32ZM397.224 59.6L396.47 61.4522L396.481 61.4569L396.493 61.4615L397.224 59.6ZM393.704 56.64L392.012 57.7056L392.021 57.7201L392.03 57.7345L393.704 56.64ZM392.344 50.56L393.564 48.9748L390.344 46.4983V50.56H392.344ZM393.384 51.36L395.311 51.8953L395.672 50.5966L394.604 49.7748L393.384 51.36ZM390.504 56.4L389.064 55.0127L389.05 55.0268L389.037 55.0412L390.504 56.4ZM385.224 59.76L384.537 57.8818L384.53 57.8845L384.522 57.8873L385.224 59.76ZM385.864 51.6L386.759 53.3889L386.784 53.3763L386.809 53.363L385.864 51.6ZM389.384 48.16L391.121 49.1523L391.121 49.1523L389.384 48.16ZM390.664 40.8H392.664V38.3289L390.247 38.8439L390.664 40.8ZM380.904 42.88L381.286 44.8432L381.304 44.8398L381.321 44.8361L380.904 42.88ZM376.504 44.8L377.833 46.2948L377.838 46.2905L376.504 44.8ZM376.504 51.52L375.224 53.0564L375.224 53.0564L376.504 51.52ZM377.784 60.96V58.96C373.661 58.96 370.474 58.0185 368.07 56.2946L366.904 57.92L365.739 59.5454C368.988 61.8748 373.054 62.96 377.784 62.96V60.96ZM366.904 57.92L368.104 56.32C365.87 54.644 364.744 52.3756 364.744 49.28H362.744H360.744C360.744 53.5444 362.392 57.036 365.704 59.52L366.904 57.92ZM362.744 49.28H364.744C364.744 45.9344 365.761 43.6375 367.572 42.0736L366.264 40.56L364.957 39.0464C362.075 41.5359 360.744 45.0523 360.744 49.28H362.744ZM366.264 40.56L367.574 42.0714C369.619 40.2989 372.772 38.8808 377.23 37.9585L376.824 36L376.419 34.0415C371.597 35.0392 367.709 36.6611 364.955 39.0486L366.264 40.56ZM376.824 36L377.21 37.9625L391.05 35.2425L390.664 33.28L390.279 31.3175L376.439 34.0375L376.824 36ZM390.664 33.28H392.664C392.664 30.2363 391.965 27.5807 390.214 25.6834L388.744 27.04L387.275 28.3966C388.083 29.2726 388.664 30.777 388.664 33.28H390.664ZM388.744 27.04L390.267 25.7431C388.571 23.7522 386.164 22.88 383.384 22.88V24.88V26.88C385.298 26.88 386.464 27.4478 387.222 28.3369L388.744 27.04ZM383.384 24.88V22.88C380.798 22.88 378.498 23.4816 376.744 24.9436L378.024 26.48L379.305 28.0164C380.11 27.345 381.384 26.88 383.384 26.88V24.88ZM378.024 26.48L376.783 24.9119C375.031 26.2985 374.015 28.3035 373.577 30.6777L375.544 31.04L377.511 31.4023C377.821 29.7232 378.457 28.6881 379.266 28.0481L378.024 26.48ZM375.544 31.04L375.637 29.0421L363.557 28.4821L363.464 30.48L363.372 32.4779L375.452 33.0379L375.544 31.04ZM363.464 30.48L365.436 30.8161C366.16 26.5675 368.02 23.5254 370.935 21.4761L369.784 19.84L368.634 18.2039C364.722 20.9546 362.369 25.0058 361.493 30.1439L363.464 30.48ZM369.784 19.84L370.94 21.4725C373.976 19.324 378.068 18.16 383.384 18.16V16.16V14.16C377.501 14.16 372.526 15.4493 368.629 18.2075L369.784 19.84ZM383.384 16.16V18.16C389.501 18.16 393.717 19.6145 396.407 22.17L397.784 20.72L399.162 19.27C395.452 15.7455 390.068 14.16 383.384 14.16V16.16ZM397.784 20.72L396.419 22.1813C399.15 24.7333 400.664 28.5828 400.664 34.08H402.664H404.664C404.664 27.8439 402.925 22.7867 399.15 19.2587L397.784 20.72ZM402.664 34.08H400.664V48.72H402.664H404.664V34.08H402.664ZM402.664 48.72H400.664C400.664 49.4219 400.717 50.0942 400.853 50.7005C400.987 51.2904 401.231 51.9595 401.719 52.517L403.224 51.2L404.73 49.883C404.844 50.0139 404.809 50.0563 404.755 49.8195C404.706 49.5992 404.664 49.2448 404.664 48.72H402.664ZM403.224 51.2L401.907 52.7051C402.824 53.5072 403.978 53.76 405.064 53.76V51.76V49.76C404.551 49.76 404.478 49.6395 404.541 49.6948L403.224 51.2ZM405.064 51.76V53.76H406.264V51.76V49.76H405.064V51.76ZM406.264 51.76H404.264V60H406.264H408.264V51.76H406.264ZM406.264 60L405.715 58.077C405.501 58.138 405.02 58.23 404.176 58.3354L404.424 60.32L404.672 62.3046C405.536 62.1966 406.281 62.0753 406.814 61.923L406.264 60ZM404.424 60.32L404.16 58.3375C403.447 58.4326 402.735 58.48 402.024 58.48V60.48V62.48C402.914 62.48 403.802 62.4207 404.689 62.3025L404.424 60.32ZM402.024 60.48V58.48C400.552 58.48 399.202 58.2279 397.956 57.7385L397.224 59.6L396.493 61.4615C398.234 62.1454 400.084 62.48 402.024 62.48V60.48ZM397.224 59.6L397.979 57.7478C396.94 57.3247 396.078 56.6156 395.378 55.5455L393.704 56.64L392.03 57.7345C393.144 59.4378 394.628 60.7019 396.47 61.4522L397.224 59.6ZM393.704 56.64L395.397 55.5744C394.772 54.5813 394.344 52.983 394.344 50.56H392.344H390.344C390.344 53.3637 390.824 55.8187 392.012 57.7056L393.704 56.64ZM392.344 50.56L391.125 52.1452L392.165 52.9452L393.384 51.36L394.604 49.7748L393.564 48.9748L392.344 50.56ZM393.384 51.36L391.457 50.8247C391.013 52.4237 390.221 53.8111 389.064 55.0127L390.504 56.4L391.945 57.7873C393.561 56.1089 394.689 54.1363 395.311 51.8953L393.384 51.36ZM390.504 56.4L389.037 55.0412C387.955 56.2091 386.481 57.1704 384.537 57.8818L385.224 59.76L385.912 61.6382C388.341 60.7496 390.387 59.4709 391.972 57.7588L390.504 56.4ZM385.224 59.76L384.522 57.8873C382.66 58.5856 380.427 58.96 377.784 58.96V60.96V62.96C380.795 62.96 383.522 62.5344 385.927 61.6327L385.224 59.76ZM380.664 52.72V54.72C382.892 54.72 384.942 54.2975 386.759 53.3889L385.864 51.6L384.97 49.8111C383.801 50.3958 382.383 50.72 380.664 50.72V52.72ZM385.864 51.6L386.809 53.363C388.639 52.3827 390.084 50.9665 391.121 49.1523L389.384 48.16L387.648 47.1677C386.978 48.3401 386.077 49.2173 384.92 49.837L385.864 51.6ZM389.384 48.16L391.121 49.1523C392.175 47.3068 392.664 45.1923 392.664 42.88H390.664H388.664C388.664 44.621 388.3 46.0265 387.648 47.1677L389.384 48.16ZM390.664 42.88H392.664V40.8H390.664H388.664V42.88H390.664ZM390.664 40.8L390.247 38.8439L380.487 40.9239L380.904 42.88L381.321 44.8361L391.081 42.7561L390.664 40.8ZM380.904 42.88L380.523 40.9168C378.395 41.3305 376.546 42.0792 375.171 43.3095L376.504 44.8L377.838 46.2905C378.49 45.7074 379.574 45.1762 381.286 44.8432L380.904 42.88ZM376.504 44.8L375.176 43.3052C373.752 44.5708 373.064 46.2533 373.064 48.16H375.064H377.064C377.064 47.2934 377.337 46.7359 377.833 46.2948L376.504 44.8ZM375.064 48.16H373.064C373.064 50.0925 373.736 51.8162 375.224 53.0564L376.504 51.52L377.785 49.9836C377.353 49.6238 377.064 49.1075 377.064 48.16H375.064ZM376.504 51.52L375.224 53.0564C376.675 54.2656 378.589 54.72 380.664 54.72V52.72V50.72C379.113 50.72 378.254 50.3744 377.785 49.9836L376.504 51.52ZM419.821 56.96L418.406 58.3742L418.416 58.3834L418.425 58.3925L419.821 56.96ZM416.701 7.04V5.04H414.701V7.04H416.701ZM428.701 7.04H430.701V5.04H428.701V7.04ZM429.981 49.92L428.664 51.4252L428.686 51.4448L428.709 51.4639L429.981 49.92ZM439.981 51.04H441.981V49.04H439.981V51.04ZM439.981 60V62H441.981V60H439.981ZM409.821 26.08H407.821V28.08H409.821V26.08ZM409.821 17.12V15.12H407.821V17.12H409.821ZM439.981 17.12H441.981V15.12H439.981V17.12ZM439.981 26.08V28.08H441.981V26.08H439.981ZM429.581 60V58C425.408 58 422.767 57.0388 421.216 55.5275L419.821 56.96L418.425 58.3925C421.034 60.9346 424.9 62 429.581 62V60ZM419.821 56.96L421.235 55.5458C419.686 53.9974 418.701 51.342 418.701 47.12H416.701H414.701C414.701 51.858 415.795 55.7626 418.406 58.3742L419.821 56.96ZM416.701 47.12H418.701V7.04H416.701H414.701V47.12H416.701ZM416.701 7.04V9.04H428.701V7.04V5.04H416.701V7.04ZM428.701 7.04H426.701V45.68H428.701H430.701V7.04H428.701ZM428.701 45.68H426.701C426.701 47.8922 427.127 50.0808 428.664 51.4252L429.981 49.92L431.298 48.4148C431.127 48.2659 430.701 47.6278 430.701 45.68H428.701ZM429.981 49.92L428.709 51.4639C430.115 52.6212 431.979 53.04 433.981 53.04V51.04V49.04C432.462 49.04 431.66 48.7121 431.252 48.3761L429.981 49.92ZM433.981 51.04V53.04H439.981V51.04V49.04H433.981V51.04ZM439.981 51.04H437.981V60H439.981H441.981V51.04H439.981ZM439.981 60V58H429.581V60V62H439.981V60ZM409.821 26.08H411.821V17.12H409.821H407.821V26.08H409.821ZM409.821 17.12V19.12H439.981V17.12V15.12H409.821V17.12ZM439.981 17.12H437.981V26.08H439.981H441.981V17.12H439.981ZM439.981 26.08V24.08H409.821V26.08V28.08H439.981V26.08ZM449.436 60H447.436V62H449.436V60ZM449.436 17.12V15.12H447.436V17.12H449.436ZM460.796 17.12L462.795 17.0559L462.733 15.12H460.796V17.12ZM461.196 29.6L460.67 31.5295L463.282 32.2419L463.195 29.5359L461.196 29.6ZM460.316 29.36L458.342 29.0431L458.057 30.8168L459.79 31.2895L460.316 29.36ZM463.996 20L465.471 21.3514L465.471 21.3514L463.996 20ZM475.196 17.12H477.196V15.12H475.196V17.12ZM475.196 27.04V29.04H477.196V27.04H475.196ZM465.756 27.92L465.002 26.0678L465.002 26.0678L465.756 27.92ZM462.476 30.72L460.749 29.7123L460.733 29.7396L460.718 29.7674L462.476 30.72ZM461.436 60V62H463.436V60H461.436ZM449.436 60H451.436V17.12H449.436H447.436V60H449.436ZM449.436 17.12V19.12H460.796V17.12V15.12H449.436V17.12ZM460.796 17.12L458.797 17.1841L459.197 29.6641L461.196 29.6L463.195 29.5359L462.795 17.0559L460.796 17.12ZM461.196 29.6L461.722 27.6705L460.842 27.4305L460.316 29.36L459.79 31.2895L460.67 31.5295L461.196 29.6ZM460.316 29.36L462.291 29.6769C462.96 25.5083 464.1 22.847 465.471 21.3514L463.996 20L462.522 18.6486C460.373 20.993 459.059 24.5717 458.342 29.0431L460.316 29.36ZM463.996 20L465.471 21.3514C466.781 19.9222 468.629 19.12 471.276 19.12V17.12V15.12C467.737 15.12 464.732 16.2378 462.522 18.6486L463.996 20ZM471.276 17.12V19.12H475.196V17.12V15.12H471.276V17.12ZM475.196 17.12H473.196V27.04H475.196H477.196V17.12H475.196ZM475.196 27.04V25.04H471.276V27.04V29.04H475.196V27.04ZM471.276 27.04V25.04C468.882 25.04 466.762 25.3506 465.002 26.0678L465.756 27.92L466.511 29.7722C467.63 29.3161 469.19 29.04 471.276 29.04V27.04ZM465.756 27.92L465.002 26.0678C463.175 26.8121 461.729 28.0315 460.749 29.7123L462.476 30.72L464.204 31.7277C464.717 30.8485 465.458 30.2012 466.511 29.7722L465.756 27.92ZM462.476 30.72L460.718 29.7674C459.806 31.4505 459.436 33.5544 459.436 35.92H461.436H463.436C463.436 33.9122 463.76 32.5495 464.235 31.6726L462.476 30.72ZM461.436 35.92H459.436V60H461.436H463.436V35.92H461.436ZM461.436 60V58H449.436V60V62H461.436V60ZM483.068 60H481.068V62H483.068V60ZM483.068 17.12V15.12H481.068V17.12H483.068ZM495.068 17.12H497.068V15.12H495.068V17.12ZM495.068 60V62H497.068V60H495.068ZM482.828 11.84H480.828V13.84H482.828V11.84ZM482.828 2.24V0.239995H480.828V2.24H482.828ZM495.228 2.24H497.228V0.239995H495.228V2.24ZM495.228 11.84V13.84H497.228V11.84H495.228ZM483.068 60H485.068V17.12H483.068H481.068V60H483.068ZM483.068 17.12V19.12H495.068V17.12V15.12H483.068V17.12ZM495.068 17.12H493.068V60H495.068H497.068V17.12H495.068ZM495.068 60V58H483.068V60V62H495.068V60ZM482.828 11.84H484.828V2.24H482.828H480.828V11.84H482.828ZM482.828 2.24V4.24H495.228V2.24V0.239995H482.828V2.24ZM495.228 2.24H493.228V11.84H495.228H497.228V2.24H495.228ZM495.228 11.84V9.84H482.828V11.84V13.84H495.228V11.84Z"
        fill="#338CFF" mask="url(#path-1-outside-1_2_2)" />
</svg>